<mxfile host="app.diagrams.net" agent="Mozilla/5.0 (Windows NT 10.0; Win64; x64) AppleWebKit/537.36 (KHTML, like Gecko) Chrome/130.0.0.0 Safari/537.36" version="24.8.3">
  <diagram name="Page-1" id="Ws_sO5cPGmUFYn-WJUDY">
    <mxGraphModel dx="2630" dy="781" grid="0" gridSize="10" guides="1" tooltips="1" connect="1" arrows="1" fold="1" page="0" pageScale="1" pageWidth="850" pageHeight="1100" math="0" shadow="0">
      <root>
        <mxCell id="0" />
        <mxCell id="1" parent="0" />
        <mxCell id="EZVA7Q2fHTNLxR68Qs3a-5" value="patients" style="swimlane;fontStyle=0;childLayout=stackLayout;horizontal=1;startSize=30;horizontalStack=0;resizeParent=1;resizeParentMax=0;resizeLast=0;collapsible=1;marginBottom=0;whiteSpace=wrap;html=1;" parent="1" vertex="1">
          <mxGeometry x="-940" y="203" width="180" height="330" as="geometry" />
        </mxCell>
        <mxCell id="EZVA7Q2fHTNLxR68Qs3a-6" value="&lt;div style=&quot;text-align: center;&quot;&gt;&lt;span style=&quot;background-color: initial;&quot;&gt;id (int)&lt;/span&gt;&lt;/div&gt;" style="text;strokeColor=none;fillColor=none;align=left;verticalAlign=middle;spacingLeft=4;spacingRight=4;overflow=hidden;points=[[0,0.5],[1,0.5]];portConstraint=eastwest;rotatable=0;whiteSpace=wrap;html=1;" parent="EZVA7Q2fHTNLxR68Qs3a-5" vertex="1">
          <mxGeometry y="30" width="180" height="30" as="geometry" />
        </mxCell>
        <mxCell id="EZVA7Q2fHTNLxR68Qs3a-7" value="&lt;code&gt;first_name (varchar)&lt;/code&gt;" style="text;strokeColor=none;fillColor=none;align=left;verticalAlign=middle;spacingLeft=4;spacingRight=4;overflow=hidden;points=[[0,0.5],[1,0.5]];portConstraint=eastwest;rotatable=0;whiteSpace=wrap;html=1;" parent="EZVA7Q2fHTNLxR68Qs3a-5" vertex="1">
          <mxGeometry y="60" width="180" height="30" as="geometry" />
        </mxCell>
        <mxCell id="EZVA7Q2fHTNLxR68Qs3a-8" value="&lt;code&gt;last_name&amp;nbsp;&lt;/code&gt;&lt;span style=&quot;font-family: monospace;&quot;&gt;(varchar)&lt;/span&gt;" style="text;strokeColor=none;fillColor=none;align=left;verticalAlign=middle;spacingLeft=4;spacingRight=4;overflow=hidden;points=[[0,0.5],[1,0.5]];portConstraint=eastwest;rotatable=0;whiteSpace=wrap;html=1;" parent="EZVA7Q2fHTNLxR68Qs3a-5" vertex="1">
          <mxGeometry y="90" width="180" height="30" as="geometry" />
        </mxCell>
        <mxCell id="EZVA7Q2fHTNLxR68Qs3a-13" value="&lt;code&gt;date_of_birth&amp;nbsp;&lt;/code&gt;(varchar)" style="text;strokeColor=none;fillColor=none;align=left;verticalAlign=middle;spacingLeft=4;spacingRight=4;overflow=hidden;points=[[0,0.5],[1,0.5]];portConstraint=eastwest;rotatable=0;whiteSpace=wrap;html=1;" parent="EZVA7Q2fHTNLxR68Qs3a-5" vertex="1">
          <mxGeometry y="120" width="180" height="30" as="geometry" />
        </mxCell>
        <mxCell id="EZVA7Q2fHTNLxR68Qs3a-14" value="gender (varchar)" style="text;strokeColor=none;fillColor=none;align=left;verticalAlign=middle;spacingLeft=4;spacingRight=4;overflow=hidden;points=[[0,0.5],[1,0.5]];portConstraint=eastwest;rotatable=0;whiteSpace=wrap;html=1;" parent="EZVA7Q2fHTNLxR68Qs3a-5" vertex="1">
          <mxGeometry y="150" width="180" height="30" as="geometry" />
        </mxCell>
        <mxCell id="EZVA7Q2fHTNLxR68Qs3a-15" value="&lt;code&gt;phone&amp;nbsp;&lt;/code&gt;(varchar)" style="text;strokeColor=none;fillColor=none;align=left;verticalAlign=middle;spacingLeft=4;spacingRight=4;overflow=hidden;points=[[0,0.5],[1,0.5]];portConstraint=eastwest;rotatable=0;whiteSpace=wrap;html=1;" parent="EZVA7Q2fHTNLxR68Qs3a-5" vertex="1">
          <mxGeometry y="180" width="180" height="30" as="geometry" />
        </mxCell>
        <mxCell id="EZVA7Q2fHTNLxR68Qs3a-16" value="&lt;code&gt;email&amp;nbsp;&lt;/code&gt;(varchar)" style="text;strokeColor=none;fillColor=none;align=left;verticalAlign=middle;spacingLeft=4;spacingRight=4;overflow=hidden;points=[[0,0.5],[1,0.5]];portConstraint=eastwest;rotatable=0;whiteSpace=wrap;html=1;" parent="EZVA7Q2fHTNLxR68Qs3a-5" vertex="1">
          <mxGeometry y="210" width="180" height="30" as="geometry" />
        </mxCell>
        <mxCell id="EZVA7Q2fHTNLxR68Qs3a-17" value="&lt;code&gt;address&amp;nbsp;&lt;/code&gt;(varchar)" style="text;strokeColor=none;fillColor=none;align=left;verticalAlign=middle;spacingLeft=4;spacingRight=4;overflow=hidden;points=[[0,0.5],[1,0.5]];portConstraint=eastwest;rotatable=0;whiteSpace=wrap;html=1;" parent="EZVA7Q2fHTNLxR68Qs3a-5" vertex="1">
          <mxGeometry y="240" width="180" height="30" as="geometry" />
        </mxCell>
        <mxCell id="_9vxBHeBCjuhZsfiFIT--1" value="&lt;code&gt;insurance_number&amp;nbsp;&lt;/code&gt;(varchar)" style="text;strokeColor=none;fillColor=none;align=left;verticalAlign=middle;spacingLeft=4;spacingRight=4;overflow=hidden;points=[[0,0.5],[1,0.5]];portConstraint=eastwest;rotatable=0;whiteSpace=wrap;html=1;" parent="EZVA7Q2fHTNLxR68Qs3a-5" vertex="1">
          <mxGeometry y="270" width="180" height="30" as="geometry" />
        </mxCell>
        <mxCell id="EZVA7Q2fHTNLxR68Qs3a-53" value="&lt;code&gt;password&amp;nbsp;&lt;/code&gt;(varchar)" style="text;strokeColor=none;fillColor=none;align=left;verticalAlign=middle;spacingLeft=4;spacingRight=4;overflow=hidden;points=[[0,0.5],[1,0.5]];portConstraint=eastwest;rotatable=0;whiteSpace=wrap;html=1;" parent="EZVA7Q2fHTNLxR68Qs3a-5" vertex="1">
          <mxGeometry y="300" width="180" height="30" as="geometry" />
        </mxCell>
        <mxCell id="EZVA7Q2fHTNLxR68Qs3a-44" value="appointments" style="swimlane;fontStyle=0;childLayout=stackLayout;horizontal=1;startSize=30;horizontalStack=0;resizeParent=1;resizeParentMax=0;resizeLast=0;collapsible=1;marginBottom=0;whiteSpace=wrap;html=1;" parent="1" vertex="1">
          <mxGeometry x="-470" y="350" width="160" height="240" as="geometry">
            <mxRectangle x="-440" y="190" width="107" height="30" as="alternateBounds" />
          </mxGeometry>
        </mxCell>
        <mxCell id="EZVA7Q2fHTNLxR68Qs3a-45" value="&lt;code&gt;id&amp;nbsp;&lt;/code&gt;&lt;span style=&quot;text-align: center;&quot;&gt;(int)&lt;/span&gt;" style="text;strokeColor=none;fillColor=none;align=left;verticalAlign=middle;spacingLeft=4;spacingRight=4;overflow=hidden;points=[[0,0.5],[1,0.5]];portConstraint=eastwest;rotatable=0;whiteSpace=wrap;html=1;" parent="EZVA7Q2fHTNLxR68Qs3a-44" vertex="1">
          <mxGeometry y="30" width="160" height="30" as="geometry" />
        </mxCell>
        <mxCell id="EZVA7Q2fHTNLxR68Qs3a-46" value="&lt;code&gt;patient_id&amp;nbsp;&lt;/code&gt;&lt;span style=&quot;text-align: center;&quot;&gt;(int)&lt;/span&gt;" style="text;strokeColor=none;fillColor=none;align=left;verticalAlign=middle;spacingLeft=4;spacingRight=4;overflow=hidden;points=[[0,0.5],[1,0.5]];portConstraint=eastwest;rotatable=0;whiteSpace=wrap;html=1;" parent="EZVA7Q2fHTNLxR68Qs3a-44" vertex="1">
          <mxGeometry y="60" width="160" height="30" as="geometry" />
        </mxCell>
        <mxCell id="EZVA7Q2fHTNLxR68Qs3a-47" value="&lt;code&gt;doctor_id&amp;nbsp;&lt;/code&gt;&lt;span style=&quot;text-align: center;&quot;&gt;(int)&lt;/span&gt;" style="text;strokeColor=none;fillColor=none;align=left;verticalAlign=middle;spacingLeft=4;spacingRight=4;overflow=hidden;points=[[0,0.5],[1,0.5]];portConstraint=eastwest;rotatable=0;whiteSpace=wrap;html=1;" parent="EZVA7Q2fHTNLxR68Qs3a-44" vertex="1">
          <mxGeometry y="90" width="160" height="30" as="geometry" />
        </mxCell>
        <mxCell id="EZVA7Q2fHTNLxR68Qs3a-48" value="&lt;code&gt;service_id&amp;nbsp;&lt;/code&gt;&lt;span style=&quot;text-align: center;&quot;&gt;(int)&lt;/span&gt;" style="text;strokeColor=none;fillColor=none;align=left;verticalAlign=middle;spacingLeft=4;spacingRight=4;overflow=hidden;points=[[0,0.5],[1,0.5]];portConstraint=eastwest;rotatable=0;whiteSpace=wrap;html=1;" parent="EZVA7Q2fHTNLxR68Qs3a-44" vertex="1">
          <mxGeometry y="120" width="160" height="30" as="geometry" />
        </mxCell>
        <mxCell id="EZVA7Q2fHTNLxR68Qs3a-110" value="&lt;code&gt;diagnosis_id&amp;nbsp;&lt;/code&gt;&lt;span style=&quot;text-align: center;&quot;&gt;(int)&lt;/span&gt;" style="text;strokeColor=none;fillColor=none;align=left;verticalAlign=middle;spacingLeft=4;spacingRight=4;overflow=hidden;points=[[0,0.5],[1,0.5]];portConstraint=eastwest;rotatable=0;whiteSpace=wrap;html=1;" parent="EZVA7Q2fHTNLxR68Qs3a-44" vertex="1">
          <mxGeometry y="150" width="160" height="30" as="geometry" />
        </mxCell>
        <mxCell id="EZVA7Q2fHTNLxR68Qs3a-49" value="&lt;code&gt;date (datetime)&lt;/code&gt;" style="text;strokeColor=none;fillColor=none;align=left;verticalAlign=middle;spacingLeft=4;spacingRight=4;overflow=hidden;points=[[0,0.5],[1,0.5]];portConstraint=eastwest;rotatable=0;whiteSpace=wrap;html=1;" parent="EZVA7Q2fHTNLxR68Qs3a-44" vertex="1">
          <mxGeometry y="180" width="160" height="30" as="geometry" />
        </mxCell>
        <mxCell id="EZVA7Q2fHTNLxR68Qs3a-50" value="&lt;code&gt;status (boolean)&lt;/code&gt;" style="text;strokeColor=none;fillColor=none;align=left;verticalAlign=middle;spacingLeft=4;spacingRight=4;overflow=hidden;points=[[0,0.5],[1,0.5]];portConstraint=eastwest;rotatable=0;whiteSpace=wrap;html=1;" parent="EZVA7Q2fHTNLxR68Qs3a-44" vertex="1">
          <mxGeometry y="210" width="160" height="30" as="geometry" />
        </mxCell>
        <mxCell id="EZVA7Q2fHTNLxR68Qs3a-55" value="diagnoses" style="swimlane;fontStyle=0;childLayout=stackLayout;horizontal=1;startSize=30;horizontalStack=0;resizeParent=1;resizeParentMax=0;resizeLast=0;collapsible=1;marginBottom=0;whiteSpace=wrap;html=1;" parent="1" vertex="1">
          <mxGeometry x="-720" y="440" width="170" height="150" as="geometry" />
        </mxCell>
        <mxCell id="EZVA7Q2fHTNLxR68Qs3a-56" value="id&amp;nbsp;&lt;span style=&quot;text-align: center;&quot;&gt;(int)&lt;/span&gt;" style="text;strokeColor=none;fillColor=none;align=left;verticalAlign=middle;spacingLeft=4;spacingRight=4;overflow=hidden;points=[[0,0.5],[1,0.5]];portConstraint=eastwest;rotatable=0;whiteSpace=wrap;html=1;" parent="EZVA7Q2fHTNLxR68Qs3a-55" vertex="1">
          <mxGeometry y="30" width="170" height="30" as="geometry" />
        </mxCell>
        <mxCell id="EZVA7Q2fHTNLxR68Qs3a-59" value="&lt;code&gt;diagnosis&amp;nbsp;&lt;/code&gt;(varchar)" style="text;strokeColor=none;fillColor=none;align=left;verticalAlign=middle;spacingLeft=4;spacingRight=4;overflow=hidden;points=[[0,0.5],[1,0.5]];portConstraint=eastwest;rotatable=0;whiteSpace=wrap;html=1;" parent="EZVA7Q2fHTNLxR68Qs3a-55" vertex="1">
          <mxGeometry y="60" width="170" height="30" as="geometry" />
        </mxCell>
        <mxCell id="EZVA7Q2fHTNLxR68Qs3a-61" value="&lt;code&gt;notes&amp;nbsp;&lt;/code&gt;(varchar)" style="text;strokeColor=none;fillColor=none;align=left;verticalAlign=middle;spacingLeft=4;spacingRight=4;overflow=hidden;points=[[0,0.5],[1,0.5]];portConstraint=eastwest;rotatable=0;whiteSpace=wrap;html=1;" parent="EZVA7Q2fHTNLxR68Qs3a-55" vertex="1">
          <mxGeometry y="90" width="170" height="30" as="geometry" />
        </mxCell>
        <mxCell id="EZVA7Q2fHTNLxR68Qs3a-67" value="&lt;span style=&quot;font-family: monospace;&quot;&gt;prescription&amp;nbsp;&lt;/span&gt;(varchar)" style="text;strokeColor=none;fillColor=none;align=left;verticalAlign=middle;spacingLeft=4;spacingRight=4;overflow=hidden;points=[[0,0.5],[1,0.5]];portConstraint=eastwest;rotatable=0;whiteSpace=wrap;html=1;" parent="EZVA7Q2fHTNLxR68Qs3a-55" vertex="1">
          <mxGeometry y="120" width="170" height="30" as="geometry" />
        </mxCell>
        <mxCell id="EZVA7Q2fHTNLxR68Qs3a-70" value="roles" style="swimlane;fontStyle=0;childLayout=stackLayout;horizontal=1;startSize=30;horizontalStack=0;resizeParent=1;resizeParentMax=0;resizeLast=0;collapsible=1;marginBottom=0;whiteSpace=wrap;html=1;" parent="1" vertex="1">
          <mxGeometry x="-33" y="317" width="140" height="90" as="geometry" />
        </mxCell>
        <mxCell id="EZVA7Q2fHTNLxR68Qs3a-71" value="id&amp;nbsp;&lt;span style=&quot;text-align: center;&quot;&gt;(int)&lt;/span&gt;" style="text;strokeColor=none;fillColor=none;align=left;verticalAlign=middle;spacingLeft=4;spacingRight=4;overflow=hidden;points=[[0,0.5],[1,0.5]];portConstraint=eastwest;rotatable=0;whiteSpace=wrap;html=1;" parent="EZVA7Q2fHTNLxR68Qs3a-70" vertex="1">
          <mxGeometry y="30" width="140" height="30" as="geometry" />
        </mxCell>
        <mxCell id="EZVA7Q2fHTNLxR68Qs3a-72" value="role (varchar)" style="text;strokeColor=none;fillColor=none;align=left;verticalAlign=middle;spacingLeft=4;spacingRight=4;overflow=hidden;points=[[0,0.5],[1,0.5]];portConstraint=eastwest;rotatable=0;whiteSpace=wrap;html=1;" parent="EZVA7Q2fHTNLxR68Qs3a-70" vertex="1">
          <mxGeometry y="60" width="140" height="30" as="geometry" />
        </mxCell>
        <mxCell id="EZVA7Q2fHTNLxR68Qs3a-74" value="services" style="swimlane;fontStyle=0;childLayout=stackLayout;horizontal=1;startSize=30;horizontalStack=0;resizeParent=1;resizeParentMax=0;resizeLast=0;collapsible=1;marginBottom=0;whiteSpace=wrap;html=1;" parent="1" vertex="1">
          <mxGeometry x="-720" y="300" width="170" height="90" as="geometry" />
        </mxCell>
        <mxCell id="EZVA7Q2fHTNLxR68Qs3a-75" value="id&amp;nbsp;&lt;span style=&quot;text-align: center;&quot;&gt;(int)&lt;/span&gt;" style="text;strokeColor=none;fillColor=none;align=left;verticalAlign=middle;spacingLeft=4;spacingRight=4;overflow=hidden;points=[[0,0.5],[1,0.5]];portConstraint=eastwest;rotatable=0;whiteSpace=wrap;html=1;" parent="EZVA7Q2fHTNLxR68Qs3a-74" vertex="1">
          <mxGeometry y="30" width="170" height="30" as="geometry" />
        </mxCell>
        <mxCell id="EZVA7Q2fHTNLxR68Qs3a-76" value="service (varchar)" style="text;strokeColor=none;fillColor=none;align=left;verticalAlign=middle;spacingLeft=4;spacingRight=4;overflow=hidden;points=[[0,0.5],[1,0.5]];portConstraint=eastwest;rotatable=0;whiteSpace=wrap;html=1;" parent="EZVA7Q2fHTNLxR68Qs3a-74" vertex="1">
          <mxGeometry y="60" width="170" height="30" as="geometry" />
        </mxCell>
        <mxCell id="EZVA7Q2fHTNLxR68Qs3a-78" value="doctors" style="swimlane;fontStyle=0;childLayout=stackLayout;horizontal=1;startSize=30;horizontalStack=0;resizeParent=1;resizeParentMax=0;resizeLast=0;collapsible=1;marginBottom=0;whiteSpace=wrap;html=1;" parent="1" vertex="1">
          <mxGeometry x="-253" y="203" width="170" height="390" as="geometry" />
        </mxCell>
        <mxCell id="EZVA7Q2fHTNLxR68Qs3a-79" value="&lt;code&gt;id&amp;nbsp;&lt;/code&gt;&lt;span style=&quot;text-align: center;&quot;&gt;(int)&lt;/span&gt;" style="text;strokeColor=none;fillColor=none;align=left;verticalAlign=middle;spacingLeft=4;spacingRight=4;overflow=hidden;points=[[0,0.5],[1,0.5]];portConstraint=eastwest;rotatable=0;whiteSpace=wrap;html=1;" parent="EZVA7Q2fHTNLxR68Qs3a-78" vertex="1">
          <mxGeometry y="30" width="170" height="30" as="geometry" />
        </mxCell>
        <mxCell id="EZVA7Q2fHTNLxR68Qs3a-81" value="&lt;code&gt;first_name&amp;nbsp;&lt;/code&gt;&lt;span style=&quot;text-align: center;&quot;&gt;(int)&lt;/span&gt;" style="text;strokeColor=none;fillColor=none;align=left;verticalAlign=middle;spacingLeft=4;spacingRight=4;overflow=hidden;points=[[0,0.5],[1,0.5]];portConstraint=eastwest;rotatable=0;whiteSpace=wrap;html=1;" parent="EZVA7Q2fHTNLxR68Qs3a-78" vertex="1">
          <mxGeometry y="60" width="170" height="30" as="geometry" />
        </mxCell>
        <mxCell id="EZVA7Q2fHTNLxR68Qs3a-82" value="&lt;code&gt;last_name&amp;nbsp;&lt;/code&gt;&lt;span style=&quot;text-align: center;&quot;&gt;(int)&lt;/span&gt;" style="text;strokeColor=none;fillColor=none;align=left;verticalAlign=middle;spacingLeft=4;spacingRight=4;overflow=hidden;points=[[0,0.5],[1,0.5]];portConstraint=eastwest;rotatable=0;whiteSpace=wrap;html=1;" parent="EZVA7Q2fHTNLxR68Qs3a-78" vertex="1">
          <mxGeometry y="90" width="170" height="30" as="geometry" />
        </mxCell>
        <mxCell id="EZVA7Q2fHTNLxR68Qs3a-83" value="&lt;code&gt;date_of_birth&amp;nbsp;&lt;/code&gt;(varchar)" style="text;strokeColor=none;fillColor=none;align=left;verticalAlign=middle;spacingLeft=4;spacingRight=4;overflow=hidden;points=[[0,0.5],[1,0.5]];portConstraint=eastwest;rotatable=0;whiteSpace=wrap;html=1;" parent="EZVA7Q2fHTNLxR68Qs3a-78" vertex="1">
          <mxGeometry y="120" width="170" height="30" as="geometry" />
        </mxCell>
        <mxCell id="EZVA7Q2fHTNLxR68Qs3a-84" value="gender (varchar)" style="text;strokeColor=none;fillColor=none;align=left;verticalAlign=middle;spacingLeft=4;spacingRight=4;overflow=hidden;points=[[0,0.5],[1,0.5]];portConstraint=eastwest;rotatable=0;whiteSpace=wrap;html=1;" parent="EZVA7Q2fHTNLxR68Qs3a-78" vertex="1">
          <mxGeometry y="150" width="170" height="30" as="geometry" />
        </mxCell>
        <mxCell id="EZVA7Q2fHTNLxR68Qs3a-85" value="&lt;code&gt;phone&amp;nbsp;&lt;/code&gt;(varchar)" style="text;strokeColor=none;fillColor=none;align=left;verticalAlign=middle;spacingLeft=4;spacingRight=4;overflow=hidden;points=[[0,0.5],[1,0.5]];portConstraint=eastwest;rotatable=0;whiteSpace=wrap;html=1;" parent="EZVA7Q2fHTNLxR68Qs3a-78" vertex="1">
          <mxGeometry y="180" width="170" height="30" as="geometry" />
        </mxCell>
        <mxCell id="EZVA7Q2fHTNLxR68Qs3a-86" value="&lt;code&gt;email&amp;nbsp;&lt;/code&gt;(varchar)" style="text;strokeColor=none;fillColor=none;align=left;verticalAlign=middle;spacingLeft=4;spacingRight=4;overflow=hidden;points=[[0,0.5],[1,0.5]];portConstraint=eastwest;rotatable=0;whiteSpace=wrap;html=1;" parent="EZVA7Q2fHTNLxR68Qs3a-78" vertex="1">
          <mxGeometry y="210" width="170" height="30" as="geometry" />
        </mxCell>
        <mxCell id="EZVA7Q2fHTNLxR68Qs3a-87" value="&lt;code&gt;address&amp;nbsp;&lt;/code&gt;(varchar)" style="text;strokeColor=none;fillColor=none;align=left;verticalAlign=middle;spacingLeft=4;spacingRight=4;overflow=hidden;points=[[0,0.5],[1,0.5]];portConstraint=eastwest;rotatable=0;whiteSpace=wrap;html=1;" parent="EZVA7Q2fHTNLxR68Qs3a-78" vertex="1">
          <mxGeometry y="240" width="170" height="30" as="geometry" />
        </mxCell>
        <mxCell id="EZVA7Q2fHTNLxR68Qs3a-88" value="&lt;code&gt;office_number&amp;nbsp;&lt;/code&gt;(varchar)" style="text;strokeColor=none;fillColor=none;align=left;verticalAlign=middle;spacingLeft=4;spacingRight=4;overflow=hidden;points=[[0,0.5],[1,0.5]];portConstraint=eastwest;rotatable=0;whiteSpace=wrap;html=1;" parent="EZVA7Q2fHTNLxR68Qs3a-78" vertex="1">
          <mxGeometry y="270" width="170" height="30" as="geometry" />
        </mxCell>
        <mxCell id="EZVA7Q2fHTNLxR68Qs3a-89" value="&lt;code&gt;specialty&amp;nbsp;&lt;/code&gt;(varchar)" style="text;strokeColor=none;fillColor=none;align=left;verticalAlign=middle;spacingLeft=4;spacingRight=4;overflow=hidden;points=[[0,0.5],[1,0.5]];portConstraint=eastwest;rotatable=0;whiteSpace=wrap;html=1;" parent="EZVA7Q2fHTNLxR68Qs3a-78" vertex="1">
          <mxGeometry y="300" width="170" height="30" as="geometry" />
        </mxCell>
        <mxCell id="EZVA7Q2fHTNLxR68Qs3a-90" value="&lt;code&gt;password&amp;nbsp;&lt;/code&gt;(varchar)" style="text;strokeColor=none;fillColor=none;align=left;verticalAlign=middle;spacingLeft=4;spacingRight=4;overflow=hidden;points=[[0,0.5],[1,0.5]];portConstraint=eastwest;rotatable=0;whiteSpace=wrap;html=1;" parent="EZVA7Q2fHTNLxR68Qs3a-78" vertex="1">
          <mxGeometry y="330" width="170" height="30" as="geometry" />
        </mxCell>
        <mxCell id="_9vxBHeBCjuhZsfiFIT--30" value="image_link (varchar)" style="text;strokeColor=none;fillColor=none;align=left;verticalAlign=middle;spacingLeft=4;spacingRight=4;overflow=hidden;points=[[0,0.5],[1,0.5]];portConstraint=eastwest;rotatable=0;whiteSpace=wrap;html=1;" parent="EZVA7Q2fHTNLxR68Qs3a-78" vertex="1">
          <mxGeometry y="360" width="170" height="30" as="geometry" />
        </mxCell>
        <mxCell id="BQpWX5KsQs_xhlKROu9q-1" value="doctors_roles" style="swimlane;fontStyle=0;childLayout=stackLayout;horizontal=1;startSize=30;horizontalStack=0;resizeParent=1;resizeParentMax=0;resizeLast=0;collapsible=1;marginBottom=0;whiteSpace=wrap;html=1;" parent="1" vertex="1">
          <mxGeometry x="-33" y="203" width="140" height="90" as="geometry" />
        </mxCell>
        <mxCell id="BQpWX5KsQs_xhlKROu9q-2" value="doctor_id&amp;nbsp;&lt;span style=&quot;text-align: center;&quot;&gt;(int)&lt;/span&gt;" style="text;strokeColor=none;fillColor=none;align=left;verticalAlign=middle;spacingLeft=4;spacingRight=4;overflow=hidden;points=[[0,0.5],[1,0.5]];portConstraint=eastwest;rotatable=0;whiteSpace=wrap;html=1;" parent="BQpWX5KsQs_xhlKROu9q-1" vertex="1">
          <mxGeometry y="30" width="140" height="30" as="geometry" />
        </mxCell>
        <mxCell id="BQpWX5KsQs_xhlKROu9q-3" value="role_id&amp;nbsp;&lt;span style=&quot;text-align: center;&quot;&gt;(int)&lt;/span&gt;" style="text;strokeColor=none;fillColor=none;align=left;verticalAlign=middle;spacingLeft=4;spacingRight=4;overflow=hidden;points=[[0,0.5],[1,0.5]];portConstraint=eastwest;rotatable=0;whiteSpace=wrap;html=1;" parent="BQpWX5KsQs_xhlKROu9q-1" vertex="1">
          <mxGeometry y="60" width="140" height="30" as="geometry" />
        </mxCell>
        <mxCell id="BQpWX5KsQs_xhlKROu9q-11" value="" style="endArrow=classic;html=1;rounded=0;exitX=1;exitY=0.5;exitDx=0;exitDy=0;entryX=1;entryY=0.5;entryDx=0;entryDy=0;" parent="1" source="EZVA7Q2fHTNLxR68Qs3a-71" target="BQpWX5KsQs_xhlKROu9q-3" edge="1">
          <mxGeometry width="50" height="50" relative="1" as="geometry">
            <mxPoint x="-176" y="418" as="sourcePoint" />
            <mxPoint x="-126" y="368" as="targetPoint" />
            <Array as="points">
              <mxPoint x="140" y="362" />
              <mxPoint x="140" y="278" />
            </Array>
          </mxGeometry>
        </mxCell>
        <mxCell id="_9vxBHeBCjuhZsfiFIT--2" value="ratings" style="swimlane;fontStyle=0;childLayout=stackLayout;horizontal=1;startSize=30;horizontalStack=0;resizeParent=1;resizeParentMax=0;resizeLast=0;collapsible=1;marginBottom=0;whiteSpace=wrap;html=1;" parent="1" vertex="1">
          <mxGeometry x="-470" y="203" width="160" height="120" as="geometry" />
        </mxCell>
        <mxCell id="_9vxBHeBCjuhZsfiFIT--3" value="doctor_id&amp;nbsp;&lt;span style=&quot;text-align: center;&quot;&gt;(int)&lt;/span&gt;" style="text;strokeColor=none;fillColor=none;align=left;verticalAlign=middle;spacingLeft=4;spacingRight=4;overflow=hidden;points=[[0,0.5],[1,0.5]];portConstraint=eastwest;rotatable=0;whiteSpace=wrap;html=1;" parent="_9vxBHeBCjuhZsfiFIT--2" vertex="1">
          <mxGeometry y="30" width="160" height="30" as="geometry" />
        </mxCell>
        <mxCell id="_9vxBHeBCjuhZsfiFIT--4" value="&lt;code&gt;patient_id&amp;nbsp;&lt;/code&gt;&lt;span style=&quot;text-align: center;&quot;&gt;(int)&lt;/span&gt;" style="text;strokeColor=none;fillColor=none;align=left;verticalAlign=middle;spacingLeft=4;spacingRight=4;overflow=hidden;points=[[0,0.5],[1,0.5]];portConstraint=eastwest;rotatable=0;whiteSpace=wrap;html=1;" parent="_9vxBHeBCjuhZsfiFIT--2" vertex="1">
          <mxGeometry y="60" width="160" height="30" as="geometry" />
        </mxCell>
        <mxCell id="_9vxBHeBCjuhZsfiFIT--5" value="rating (float)" style="text;strokeColor=none;fillColor=none;align=left;verticalAlign=middle;spacingLeft=4;spacingRight=4;overflow=hidden;points=[[0,0.5],[1,0.5]];portConstraint=eastwest;rotatable=0;whiteSpace=wrap;html=1;" parent="_9vxBHeBCjuhZsfiFIT--2" vertex="1">
          <mxGeometry y="90" width="160" height="30" as="geometry" />
        </mxCell>
        <mxCell id="_9vxBHeBCjuhZsfiFIT--9" value="" style="endArrow=classic;html=1;rounded=0;exitX=1;exitY=0.5;exitDx=0;exitDy=0;entryX=0;entryY=0.5;entryDx=0;entryDy=0;" parent="1" source="EZVA7Q2fHTNLxR68Qs3a-79" target="BQpWX5KsQs_xhlKROu9q-2" edge="1">
          <mxGeometry width="50" height="50" relative="1" as="geometry">
            <mxPoint x="-40" y="380" as="sourcePoint" />
            <mxPoint x="10" y="330" as="targetPoint" />
          </mxGeometry>
        </mxCell>
        <mxCell id="_9vxBHeBCjuhZsfiFIT--12" value="" style="endArrow=classic;html=1;rounded=0;exitX=1;exitY=0.5;exitDx=0;exitDy=0;entryX=0;entryY=0.5;entryDx=0;entryDy=0;" parent="1" source="EZVA7Q2fHTNLxR68Qs3a-6" target="_9vxBHeBCjuhZsfiFIT--4" edge="1">
          <mxGeometry width="50" height="50" relative="1" as="geometry">
            <mxPoint x="-610" y="270" as="sourcePoint" />
            <mxPoint x="-560" y="220" as="targetPoint" />
            <Array as="points">
              <mxPoint x="-500" y="248" />
              <mxPoint x="-500" y="278" />
            </Array>
          </mxGeometry>
        </mxCell>
        <mxCell id="_9vxBHeBCjuhZsfiFIT--14" value="" style="endArrow=classic;html=1;rounded=0;exitX=1;exitY=0.5;exitDx=0;exitDy=0;entryX=0;entryY=0.5;entryDx=0;entryDy=0;" parent="1" source="EZVA7Q2fHTNLxR68Qs3a-6" target="EZVA7Q2fHTNLxR68Qs3a-46" edge="1">
          <mxGeometry width="50" height="50" relative="1" as="geometry">
            <mxPoint x="-620" y="350" as="sourcePoint" />
            <mxPoint x="-500" y="248" as="targetPoint" />
            <Array as="points">
              <mxPoint x="-500" y="248" />
              <mxPoint x="-500" y="425" />
            </Array>
          </mxGeometry>
        </mxCell>
        <mxCell id="_9vxBHeBCjuhZsfiFIT--15" value="" style="endArrow=classic;html=1;rounded=0;exitX=1;exitY=0.5;exitDx=0;exitDy=0;entryX=0;entryY=0.5;entryDx=0;entryDy=0;" parent="1" source="EZVA7Q2fHTNLxR68Qs3a-75" target="EZVA7Q2fHTNLxR68Qs3a-48" edge="1">
          <mxGeometry width="50" height="50" relative="1" as="geometry">
            <mxPoint x="-510" y="400" as="sourcePoint" />
            <mxPoint x="-510" y="335" as="targetPoint" />
            <Array as="points">
              <mxPoint x="-520" y="345" />
              <mxPoint x="-520" y="485" />
            </Array>
          </mxGeometry>
        </mxCell>
        <mxCell id="_9vxBHeBCjuhZsfiFIT--19" value="" style="endArrow=none;html=1;rounded=0;exitX=1;exitY=0.5;exitDx=0;exitDy=0;entryX=0;entryY=0.5;entryDx=0;entryDy=0;" parent="1" source="EZVA7Q2fHTNLxR68Qs3a-56" target="EZVA7Q2fHTNLxR68Qs3a-110" edge="1">
          <mxGeometry width="50" height="50" relative="1" as="geometry">
            <mxPoint x="-530" y="520" as="sourcePoint" />
            <mxPoint x="-480" y="470" as="targetPoint" />
            <Array as="points">
              <mxPoint x="-535" y="485" />
              <mxPoint x="-535" y="515" />
            </Array>
          </mxGeometry>
        </mxCell>
        <mxCell id="_9vxBHeBCjuhZsfiFIT--21" value="" style="endArrow=classic;html=1;rounded=0;exitX=0.001;exitY=0.562;exitDx=0;exitDy=0;exitPerimeter=0;entryX=1;entryY=0.5;entryDx=0;entryDy=0;" parent="1" source="EZVA7Q2fHTNLxR68Qs3a-79" target="EZVA7Q2fHTNLxR68Qs3a-47" edge="1">
          <mxGeometry width="50" height="50" relative="1" as="geometry">
            <mxPoint x="-280" y="310" as="sourcePoint" />
            <mxPoint x="-280" y="500" as="targetPoint" />
            <Array as="points">
              <mxPoint x="-280" y="250" />
              <mxPoint x="-280" y="455" />
            </Array>
          </mxGeometry>
        </mxCell>
        <mxCell id="_9vxBHeBCjuhZsfiFIT--23" value="" style="endArrow=classic;html=1;rounded=0;entryX=0.998;entryY=0.57;entryDx=0;entryDy=0;entryPerimeter=0;" parent="1" target="_9vxBHeBCjuhZsfiFIT--3" edge="1">
          <mxGeometry width="50" height="50" relative="1" as="geometry">
            <mxPoint x="-280" y="250" as="sourcePoint" />
            <mxPoint x="-290" y="190" as="targetPoint" />
          </mxGeometry>
        </mxCell>
        <mxCell id="_9vxBHeBCjuhZsfiFIT--25" value="news" style="swimlane;fontStyle=0;childLayout=stackLayout;horizontal=1;startSize=30;horizontalStack=0;resizeParent=1;resizeParentMax=0;resizeLast=0;collapsible=1;marginBottom=0;whiteSpace=wrap;html=1;" parent="1" vertex="1">
          <mxGeometry x="-33" y="443" width="140" height="150" as="geometry" />
        </mxCell>
        <mxCell id="_9vxBHeBCjuhZsfiFIT--26" value="id (int)" style="text;strokeColor=none;fillColor=none;align=left;verticalAlign=middle;spacingLeft=4;spacingRight=4;overflow=hidden;points=[[0,0.5],[1,0.5]];portConstraint=eastwest;rotatable=0;whiteSpace=wrap;html=1;" parent="_9vxBHeBCjuhZsfiFIT--25" vertex="1">
          <mxGeometry y="30" width="140" height="30" as="geometry" />
        </mxCell>
        <mxCell id="_9vxBHeBCjuhZsfiFIT--27" value="title (varchar)" style="text;strokeColor=none;fillColor=none;align=left;verticalAlign=middle;spacingLeft=4;spacingRight=4;overflow=hidden;points=[[0,0.5],[1,0.5]];portConstraint=eastwest;rotatable=0;whiteSpace=wrap;html=1;" parent="_9vxBHeBCjuhZsfiFIT--25" vertex="1">
          <mxGeometry y="60" width="140" height="30" as="geometry" />
        </mxCell>
        <mxCell id="_9vxBHeBCjuhZsfiFIT--28" value="text (varchar)" style="text;strokeColor=none;fillColor=none;align=left;verticalAlign=middle;spacingLeft=4;spacingRight=4;overflow=hidden;points=[[0,0.5],[1,0.5]];portConstraint=eastwest;rotatable=0;whiteSpace=wrap;html=1;" parent="_9vxBHeBCjuhZsfiFIT--25" vertex="1">
          <mxGeometry y="90" width="140" height="30" as="geometry" />
        </mxCell>
        <mxCell id="_9vxBHeBCjuhZsfiFIT--29" value="image_link (varchar)" style="text;strokeColor=none;fillColor=none;align=left;verticalAlign=middle;spacingLeft=4;spacingRight=4;overflow=hidden;points=[[0,0.5],[1,0.5]];portConstraint=eastwest;rotatable=0;whiteSpace=wrap;html=1;" parent="_9vxBHeBCjuhZsfiFIT--25" vertex="1">
          <mxGeometry y="120" width="140" height="30" as="geometry" />
        </mxCell>
      </root>
    </mxGraphModel>
  </diagram>
</mxfile>
